<svg width="33" height="41" viewBox="0 0 33 41" fill="none" xmlns="http://www.w3.org/2000/svg">
<path d="M6.216 13.944C5.784 13.656 5.28 13.384 4.704 13.128C4.128 12.872 3.592 12.68 3.096 12.552C2.6 12.408 2.224 12.392 1.968 12.504C1.728 12.6 1.536 12.88 1.392 13.344C1.216 14.096 1.024 14.976 0.816 15.984C0.608 16.976 0.4 18.032 0.192 19.152C0 20.272 -0.192 21.416 -0.384 22.584C-0.576 23.752 -0.744 24.864 -0.888 25.92C-1.048 26.976 -1.176 27.952 -1.272 28.848C-1.384 29.728 -1.456 30.448 -1.488 31.008C-1.536 31.424 -1.496 31.752 -1.368 31.992C-1.256 32.216 -1.016 32.416 -0.648 32.592C-0.312 32.768 0.04 32.912 0.408 33.024C0.792 33.136 1.192 33.248 1.608 33.36C2.024 33.456 2.296 33.464 2.424 33.384C2.568 33.304 2.68 33.128 2.76 32.856C2.904 32.136 3.072 31.32 3.264 30.408C3.472 29.48 3.696 28.504 3.936 27.48C4.176 26.44 4.424 25.384 4.68 24.312C4.936 23.224 5.192 22.168 5.448 21.144C5.72 20.104 5.984 19.12 6.24 18.192C6.512 17.264 6.76 16.44 6.984 15.72C7.096 15.288 7.104 14.96 7.008 14.736C6.928 14.512 6.664 14.248 6.216 13.944ZM16.4046 25.152C16.2286 24.336 16.0526 23.488 15.8766 22.608C15.7006 21.712 15.5326 20.848 15.3726 20.016C15.2126 19.168 15.0686 18.384 14.9406 17.664C14.8126 16.944 14.7086 16.352 14.6286 15.888C14.5326 15.28 14.3806 14.824 14.1726 14.52C13.9646 14.2 13.6126 13.936 13.1166 13.728C12.5086 13.44 11.9246 13.208 11.3646 13.032C10.8046 12.856 10.2286 12.68 9.63656 12.504C9.14056 12.376 8.74856 12.376 8.46056 12.504C8.17256 12.616 7.97256 12.912 7.86056 13.392C7.68456 14.224 7.50056 15.176 7.30856 16.248C7.13256 17.32 6.95656 18.432 6.78056 19.584C6.60456 20.736 6.44456 21.896 6.30056 23.064C6.14056 24.216 6.00456 25.304 5.89256 26.328C5.76456 27.336 5.66856 28.24 5.60456 29.04C5.52456 29.84 5.46856 30.456 5.43656 30.888C5.40456 31.304 5.45256 31.632 5.58056 31.872C5.69256 32.096 5.92456 32.296 6.27656 32.472C6.64456 32.696 7.02056 32.864 7.40456 32.976C7.80456 33.072 8.19656 33.168 8.58056 33.264C8.99656 33.376 9.27656 33.392 9.42056 33.312C9.56456 33.248 9.66856 33.08 9.73256 32.808C9.81256 32.232 9.91656 31.56 10.0446 30.792C10.1886 30.008 10.3406 29.168 10.5006 28.272C10.6766 27.36 10.8526 26.408 11.0286 25.416C11.2206 24.424 11.4046 23.432 11.5806 22.44C11.7886 23.272 12.0126 24.104 12.2526 24.936C12.4926 25.752 12.7326 26.544 12.9726 27.312C13.2126 28.064 13.4446 28.768 13.6686 29.424C13.9086 30.08 14.1406 30.656 14.3646 31.152C14.6526 31.84 15.1486 32.32 15.8526 32.592C16.6206 32.864 17.3726 33.072 18.1086 33.216C18.9726 33.408 19.4526 33.2 19.5486 32.592C19.8046 31.472 20.1086 30.176 20.4606 28.704C20.8286 27.216 21.2046 25.696 21.5886 24.144C21.9886 22.592 22.3886 21.064 22.7886 19.56C23.1886 18.056 23.5726 16.712 23.9406 15.528C24.0686 15.112 24.1006 14.76 24.0366 14.472C23.9886 14.168 23.7326 13.872 23.2686 13.584C22.9966 13.408 22.7566 13.264 22.5486 13.152C22.3406 13.04 22.1406 12.944 21.9486 12.864C21.7726 12.784 21.5886 12.72 21.3966 12.672C21.2046 12.624 20.9886 12.568 20.7486 12.504C20.2366 12.376 19.8446 12.368 19.5726 12.48C19.3166 12.592 19.1246 12.88 18.9966 13.344C18.5326 15.056 18.0606 16.928 17.5806 18.96C17.1166 20.992 16.7246 23.056 16.4046 25.152Z" transform="translate(5.09998 0.5)" fill="#FF589E"/>
<path d="M6.216 13.944L7.9005 11.4616L7.89033 11.4547L7.8801 11.4478L6.216 13.944ZM4.704 13.128L5.92242 10.3866L5.92241 10.3866L4.704 13.128ZM3.096 12.552L2.25957 15.433L2.30279 15.4456L2.34636 15.4568L3.096 12.552ZM1.968 12.504L3.08217 15.2894L3.12661 15.2717L3.17046 15.2525L1.968 12.504ZM1.392 13.344L-1.47319 12.4548L-1.50478 12.5566L-1.52906 12.6603L1.392 13.344ZM0.816 15.984L3.75217 16.5996L3.7541 16.5903L0.816 15.984ZM0.192 19.152L-2.75757 18.6042L-2.76136 18.6246L-2.76487 18.6451L0.192 19.152ZM-0.384 22.584L2.57627 23.0706L2.57627 23.0706L-0.384 22.584ZM-0.888 25.92L2.07815 26.3694L2.08148 26.3474L2.08449 26.3253L-0.888 25.92ZM-1.272 28.848L1.70399 29.2268L1.70775 29.1972L1.71093 29.1676L-1.272 28.848ZM-1.488 31.008L1.49223 31.3519L1.50217 31.2657L1.50711 31.1791L-1.488 31.008ZM-1.368 31.992L1.31528 30.6504L1.29763 30.6151L1.27906 30.5802L-1.368 31.992ZM-0.648 32.592L0.744021 29.9345L0.695639 29.9092L0.646366 29.8856L-0.648 32.592ZM0.408 33.024L-0.465485 35.894L-0.448771 35.8991L-0.432 35.904L0.408 33.024ZM1.608 33.36L0.82808 36.2568L0.880512 36.271L0.933421 36.2832L1.608 33.36ZM2.424 33.384L0.967072 30.7615L0.899527 30.7991L0.834003 30.84L2.424 33.384ZM2.76 32.856L5.6381 33.7025L5.67564 33.5748L5.70174 33.4443L2.76 32.856ZM3.264 30.408L0.336631 29.7519L0.332367 29.7709L0.328351 29.79L3.264 30.408ZM3.936 27.48L6.85687 28.1646L6.85917 28.1546L3.936 27.48ZM4.68 24.312L7.59797 25.0088L7.60025 24.9991L4.68 24.312ZM5.448 21.144L2.54562 20.3849L2.54151 20.4006L2.53757 20.4164L5.448 21.144ZM6.24 18.192L3.36111 17.3482L3.35439 17.3711L3.34802 17.3942L6.24 18.192ZM6.984 15.72L9.84857 16.6112L9.86994 16.5425L9.88799 16.4729L6.984 15.72ZM7.008 14.736L4.18278 15.745L4.214 15.8324L4.25056 15.9178L7.008 14.736ZM7.8801 11.4478C7.2806 11.0482 6.62202 10.6975 5.92242 10.3866L3.48558 15.8694C3.93798 16.0705 4.2874 16.2638 4.5519 16.4401L7.8801 11.4478ZM5.92241 10.3866C5.22803 10.0779 4.53376 9.82475 3.84564 9.64717L2.34636 15.4568C2.65024 15.5352 3.02797 15.666 3.48559 15.8694L5.92241 10.3866ZM3.93243 9.67096C3.26546 9.47732 2.02066 9.20641 0.76554 9.75553L3.17046 15.2525C2.76076 15.4317 2.43235 15.4343 2.31446 15.4293C2.19216 15.4241 2.16338 15.4051 2.25957 15.433L3.93243 9.67096ZM0.853831 9.71857C-0.72833 10.3514 -1.27904 11.8292 -1.47319 12.4548L4.25719 14.2332C4.27504 14.1757 4.24813 14.2931 4.11819 14.4826C3.98221 14.6809 3.66186 15.0576 3.08217 15.2894L0.853831 9.71857ZM-1.52906 12.6603C-1.71268 13.4449 -1.91039 14.3518 -2.1221 15.3777L3.7541 16.5903C3.95839 15.6002 4.14468 14.7471 4.31306 14.0277L-1.52906 12.6603ZM-2.12015 15.3684C-2.33342 16.3855 -2.54586 17.4643 -2.75757 18.6042L3.14157 19.6998C3.34586 18.5997 3.54942 17.5665 3.75215 16.5996L-2.12015 15.3684ZM-2.76487 18.6451C-2.95807 19.7721 -3.1512 20.9229 -3.34427 22.0974L2.57627 23.0706C2.7672 21.9091 2.95807 20.7719 3.14887 19.6589L-2.76487 18.6451ZM-3.34427 22.0974C-3.54024 23.2895 -3.71241 24.4287 -3.86049 25.5147L2.08449 26.3253C2.22441 25.2993 2.38824 24.2145 2.57627 23.0706L-3.34427 22.0974ZM-3.85415 25.4706C-4.01953 26.5621 -4.15352 27.582 -4.25493 28.5284L1.71093 29.1676C1.80152 28.322 1.92353 27.3899 2.07815 26.3694L-3.85415 25.4706ZM-4.24799 28.4692C-4.36437 29.3836 -4.44556 30.1797 -4.48311 30.8369L1.50711 31.1791C1.53356 30.7163 1.59637 30.0724 1.70399 29.2268L-4.24799 28.4692ZM-4.46823 30.6641C-4.55095 31.3811 -4.54645 32.4074 -4.01506 33.4038L1.27906 30.5802C1.42195 30.8482 1.46853 31.0765 1.48394 31.2028C1.49899 31.3262 1.4885 31.3842 1.49223 31.3519L-4.46823 30.6641ZM-4.05128 33.3336C-3.50471 34.4268 -2.56289 35.0016 -1.94237 35.2984L0.646366 29.8856C0.622715 29.8743 0.697399 29.906 0.816553 30.0053C0.938241 30.1067 1.14643 30.3126 1.31528 30.6504L-4.05128 33.3336ZM-2.04002 35.2495C-1.53585 35.5136 -1.01004 35.7283 -0.465485 35.894L1.28148 30.154C1.09004 30.0957 0.911851 30.0224 0.744021 29.9345L-2.04002 35.2495ZM-0.432 35.904C-0.0265786 36.0222 0.393513 36.1398 0.82808 36.2568L2.38792 30.4632C1.99049 30.3562 1.61058 30.2498 1.248 30.144L-0.432 35.904ZM0.933421 36.2832C1.23854 36.3536 1.624 36.4246 2.0358 36.4367C2.3513 36.446 3.18532 36.4459 4.014 35.928L0.834003 30.84C1.21655 30.6009 1.56623 30.5115 1.76954 30.475C1.97934 30.4372 2.13767 30.4371 2.2122 30.4393C2.352 30.4434 2.39346 30.4624 2.28258 30.4368L0.933421 36.2832ZM3.88093 36.0065C5.06738 35.3473 5.48491 34.2233 5.6381 33.7025L-0.118097 32.0095C-0.105137 31.9654 -0.0529966 31.7983 0.0850156 31.5814C0.227279 31.3578 0.501172 31.0204 0.967072 30.7615L3.88093 36.0065ZM5.70174 33.4443C5.84332 32.7365 6.00921 31.9306 6.19965 31.026L0.328351 29.79C0.134793 30.7094 -0.0353187 31.5355 -0.181742 32.2677L5.70174 33.4443ZM6.19137 31.0641C6.39703 30.1466 6.61884 29.1801 6.85685 28.1646L1.01515 26.7954C0.773161 27.8279 0.546967 28.8134 0.336631 29.7519L6.19137 31.0641ZM6.85917 28.1546C7.09741 27.1222 7.34366 26.0737 7.59795 25.0088L1.76205 23.6152C1.50434 24.6943 1.25459 25.7578 1.01283 26.8054L6.85917 28.1546ZM7.60025 24.9991C7.85326 23.9239 8.10599 22.8814 8.35843 21.8716L2.53757 20.4164C2.27801 21.4546 2.01874 22.5241 1.75975 23.6249L7.60025 24.9991ZM8.35038 21.9031C8.61938 20.8745 8.87991 19.9035 9.13198 18.9898L3.34802 17.3942C3.08809 18.3365 2.82062 19.3335 2.54562 20.3849L8.35038 21.9031ZM9.11889 19.0358C9.38746 18.1195 9.63061 17.3118 9.84857 16.6112L4.11943 14.8288C3.88939 15.5682 3.63654 16.4085 3.36111 17.3482L9.11889 19.0358ZM9.88799 16.4729C10.0454 15.8659 10.2651 14.7202 9.76544 13.5542L4.25056 15.9178C4.08078 15.5216 4.07183 15.2023 4.07489 15.0768C4.07808 14.946 4.09751 14.8996 4.08001 14.9671L9.88799 16.4729ZM9.83322 13.727C9.58278 13.0257 9.15708 12.5344 8.87132 12.2487C8.56047 11.9378 8.21791 11.677 7.9005 11.4616L4.5315 16.4264C4.66209 16.515 4.67553 16.5382 4.62868 16.4913C4.60209 16.4647 4.53818 16.3978 4.46148 16.289C4.386 16.1819 4.27381 15.9999 4.18278 15.745L9.83322 13.727ZM16.4046 25.152L13.472 25.7845L19.3702 25.6048L16.4046 25.152ZM15.8766 22.608L12.9328 23.1862L12.9348 23.1963L15.8766 22.608ZM15.3726 20.016L12.4246 20.5722L12.4265 20.5825L15.3726 20.016ZM14.9406 17.664L17.8943 17.1389L17.8943 17.1389L14.9406 17.664ZM14.6286 15.888L11.6653 16.3559L11.6686 16.3768L11.6722 16.3977L14.6286 15.888ZM14.1726 14.52L11.6572 16.155L11.6766 16.1847L11.6966 16.214L14.1726 14.52ZM13.1166 13.728L11.8323 16.4392L11.8937 16.4683L11.9564 16.4946L13.1166 13.728ZM11.3646 13.032L10.4651 15.894L10.4651 15.894L11.3646 13.032ZM9.63656 12.504L10.4915 9.62839L10.4391 9.61282L10.3862 9.59917L9.63656 12.504ZM8.46056 12.504L9.5479 15.3L9.61408 15.2743L9.67898 15.2454L8.46056 12.504ZM7.86056 13.392L4.93904 12.7103L4.93196 12.7406L4.92551 12.7711L7.86056 13.392ZM7.30856 16.248L4.35555 15.7191L4.35172 15.7405L4.3482 15.762L7.30856 16.248ZM6.78056 19.584L9.74615 20.0371L9.74615 20.0371L6.78056 19.584ZM6.30056 23.064L9.27204 23.4767L9.2752 23.4539L9.27802 23.4311L6.30056 23.064ZM5.89256 26.328L8.86866 26.7059L8.87195 26.6801L8.87478 26.6542L5.89256 26.328ZM5.60456 29.04L8.58967 29.3385L8.59264 29.3089L8.59501 29.2792L5.60456 29.04ZM5.43656 30.888L8.42774 31.1181L8.42837 31.1096L5.43656 30.888ZM5.58056 31.872L8.26384 30.5304L8.24619 30.4951L8.22762 30.4602L5.58056 31.872ZM6.27656 32.472L7.8364 29.9094L7.72981 29.8445L7.6182 29.7887L6.27656 32.472ZM7.40456 32.976L6.56456 35.856L6.63405 35.8763L6.70444 35.8932L7.40456 32.976ZM8.58056 33.264L9.36048 30.3672L9.33439 30.3601L9.30817 30.3536L8.58056 33.264ZM9.42056 33.312L8.20215 30.5706L8.08025 30.6247L7.96363 30.6895L9.42056 33.312ZM9.73256 32.808L12.6528 33.4951L12.6848 33.3591L12.704 33.2207L9.73256 32.808ZM10.0446 30.792L7.09392 30.25L7.08945 30.2744L7.08538 30.2988L10.0446 30.792ZM10.5006 28.272L7.55491 27.7035L7.55095 27.7241L7.54728 27.7446L10.5006 28.272ZM11.0286 25.416L8.08322 24.8459L8.07878 24.8689L8.07469 24.8919L11.0286 25.416ZM11.5806 22.44L14.491 21.7124L8.62669 21.9159L11.5806 22.44ZM12.2526 24.936L9.37009 25.7675L9.37226 25.775L9.37447 25.7825L12.2526 24.936ZM12.9726 27.312L10.1091 28.2068L10.1118 28.2155L10.1146 28.2241L12.9726 27.312ZM13.6686 29.424L10.8295 30.3934L10.84 30.4242L10.8512 30.4547L13.6686 29.424ZM14.3646 31.152L17.1319 29.9936L17.1158 29.9552L17.0987 29.9172L14.3646 31.152ZM15.8526 32.592L14.7714 35.3904L14.811 35.4057L14.851 35.4199L15.8526 32.592ZM18.1086 33.216L18.7594 30.2874L18.7221 30.2792L18.6846 30.2718L18.1086 33.216ZM19.5486 32.592L16.624 31.9235L16.6012 32.0232L16.5853 32.1241L19.5486 32.592ZM20.4606 28.704L17.5483 27.9838L17.5455 27.995L17.5428 28.0063L20.4606 28.704ZM21.5886 24.144L18.6835 23.3953L18.6799 23.4093L18.6764 23.4235L21.5886 24.144ZM22.7886 19.56L25.6878 20.3311L25.6878 20.3311L22.7886 19.56ZM23.9406 15.528L26.8054 16.4184L26.8079 16.4103L23.9406 15.528ZM24.0366 14.472L21.0733 14.9399L21.0878 15.0319L21.108 15.1228L24.0366 14.472ZM23.2686 13.584L21.6388 16.1027L21.6625 16.118L21.6865 16.1329L23.2686 13.584ZM22.5486 13.152L21.1263 15.7934L21.1263 15.7934L22.5486 13.152ZM21.9486 12.864L20.7072 15.5951L20.7506 15.6149L20.7947 15.6332L21.9486 12.864ZM21.3966 12.672L22.1242 9.76157L22.1242 9.76157L21.3966 12.672ZM20.7486 12.504L21.5216 9.60529L21.4989 9.59926L21.4762 9.59357L20.7486 12.504ZM19.5726 12.48L18.4303 9.70597L18.4001 9.71842L18.3701 9.73152L19.5726 12.48ZM18.9966 13.344L16.1046 12.5462L16.101 12.5592L18.9966 13.344ZM17.5806 18.96L14.6609 18.2703L14.6583 18.2812L14.6558 18.2922L17.5806 18.96ZM19.3371 24.5195C19.1645 23.7192 18.9916 22.886 18.8183 22.0197L12.9348 23.1963C13.1136 24.09 13.2926 24.9528 13.472 25.7845L19.3371 24.5195ZM18.8203 22.0298C18.645 21.1374 18.4778 20.2773 18.3186 19.4495L12.4265 20.5825C12.5873 21.4187 12.7561 22.2866 12.9328 23.1862L18.8203 22.0298ZM18.3205 19.4598C18.1622 18.6204 18.0201 17.8469 17.8943 17.1389L11.9869 18.1891C12.117 18.9211 12.263 19.7156 12.4246 20.5722L18.3205 19.4598ZM17.8943 17.1389C17.7667 16.4216 17.6637 15.8352 17.5849 15.3783L11.6722 16.3977C11.7534 16.8688 11.8584 17.4664 11.9869 18.1891L17.8943 17.1389ZM17.5919 15.4201C17.4671 14.6301 17.2224 13.6648 16.6485 12.8259L11.6966 16.214C11.6481 16.1431 11.6201 16.0888 11.6068 16.0608C11.5935 16.0326 11.5914 16.0233 11.5965 16.0387C11.6015 16.0538 11.6117 16.0869 11.6244 16.1415C11.637 16.1958 11.6512 16.2666 11.6653 16.3559L17.5919 15.4201ZM16.6879 12.885C16.0429 11.8927 15.1091 11.3105 14.2767 10.9614L11.9564 16.4946C12.0252 16.5234 12.0119 16.5265 11.9526 16.482C11.8895 16.4347 11.7718 16.3313 11.6572 16.155L16.6879 12.885ZM14.4008 11.0168C13.6858 10.6781 12.973 10.3928 12.264 10.17L10.4651 15.894C10.8761 16.0232 11.3313 16.2019 11.8323 16.4392L14.4008 11.0168ZM12.264 10.17C11.6885 9.98913 11.0976 9.80859 10.4915 9.62839L8.78165 15.3796C9.35953 15.5514 9.92065 15.7229 10.4651 15.894L12.264 10.17ZM10.3862 9.59917C9.61426 9.39996 8.43113 9.23413 7.24215 9.76257L9.67898 15.2454C9.35794 15.3881 9.09494 15.408 8.97056 15.408C8.85013 15.408 8.81351 15.3899 8.88693 15.4088L10.3862 9.59917ZM7.37323 9.70798C5.71413 10.3532 5.13857 11.8552 4.93904 12.7103L10.7821 14.0737C10.7813 14.0772 10.7717 14.1181 10.7445 14.1856C10.7174 14.253 10.6672 14.361 10.5803 14.4896C10.3936 14.766 10.0579 15.1017 9.5479 15.3L7.37323 9.70798ZM4.92551 12.7711C4.74155 13.6407 4.55162 14.6244 4.35555 15.7191L10.2616 16.7769C10.4495 15.7276 10.6276 14.8073 10.7956 14.0129L4.92551 12.7711ZM4.3482 15.762C4.17027 16.8457 3.99253 17.9687 3.81497 19.1309L9.74615 20.0371C9.92059 18.8953 10.0949 17.7943 10.2689 16.734L4.3482 15.762ZM3.81497 19.1309C3.63456 20.3118 3.47061 21.5005 3.32311 22.6969L9.27802 23.4311C9.41851 22.2915 9.57457 21.1602 9.74615 20.0371L3.81497 19.1309ZM3.32909 22.6513C3.16559 23.8285 3.02588 24.9455 2.91035 26.0018L8.87478 26.6542C8.98325 25.6625 9.11554 24.6035 9.27204 23.4767L3.32909 22.6513ZM2.91646 25.9501C2.78406 26.9927 2.68264 27.9442 2.61412 28.8008L8.59501 29.2792C8.65448 28.5358 8.74506 27.6793 8.86866 26.7059L2.91646 25.9501ZM2.61945 28.7415C2.53866 29.5494 2.47963 30.1956 2.44476 30.6664L8.42837 31.1096C8.4575 30.7164 8.51047 30.1306 8.58967 29.3385L2.61945 28.7415ZM2.4454 30.6579C2.39127 31.3616 2.42958 32.3389 2.9335 33.2838L8.22762 30.4602C8.35737 30.7035 8.4015 30.9061 8.41695 31.0116C8.43215 31.1155 8.42461 31.1586 8.42773 31.1181L2.4454 30.6579ZM2.89728 33.2136C3.42341 34.2659 4.31184 34.8437 4.93492 35.1553L7.6182 29.7887C7.60468 29.782 7.68101 29.8174 7.79738 29.9178C7.9168 30.0207 8.10745 30.2176 8.26384 30.5304L2.89728 33.2136ZM4.71672 35.0346C5.29248 35.3851 5.90908 35.6648 6.56456 35.856L8.24456 30.096C8.13205 30.0632 7.99665 30.0069 7.8364 29.9094L4.71672 35.0346ZM6.70444 35.8932C7.09563 35.987 7.47846 36.0808 7.85296 36.1744L9.30817 30.3536C8.91467 30.2552 8.5135 30.157 8.10468 30.0588L6.70444 35.8932ZM7.80064 36.1608C8.1139 36.2452 8.50725 36.3309 8.93141 36.3551C9.28554 36.3753 10.071 36.3825 10.8775 35.9345L7.96363 30.6895C8.31932 30.4919 8.63936 30.4178 8.8393 30.3876C9.04249 30.3569 9.19632 30.3605 9.27371 30.3649C9.41787 30.3731 9.46322 30.3948 9.36048 30.3672L7.80064 36.1608ZM10.639 36.0534C12.1221 35.3943 12.5336 34.0017 12.6528 33.4951L6.81231 32.1209C6.82632 32.0613 6.88274 31.8384 7.05577 31.5589C7.24025 31.2609 7.59803 30.8391 8.20215 30.5706L10.639 36.0534ZM12.704 33.2207C12.7793 32.6788 12.8788 32.0347 13.0037 31.2852L7.08538 30.2988C6.95431 31.0853 6.84582 31.7852 6.76109 32.3953L12.704 33.2207ZM12.9952 31.334C13.1402 30.5445 13.2931 29.6996 13.4538 28.7994L7.54728 27.7446C7.38803 28.6364 7.23691 29.4715 7.09392 30.25L12.9952 31.334ZM13.4462 28.8405C13.6253 27.9125 13.804 26.9457 13.9824 25.9401L8.07469 24.8919C7.9011 25.8703 7.72783 26.8075 7.55491 27.7035L13.4462 28.8405ZM13.9739 25.9861C14.1689 24.9788 14.3557 23.9715 14.5344 22.9641L8.62669 21.9159C8.45342 22.8925 8.27227 23.8692 8.08322 24.8459L13.9739 25.9861ZM8.67014 23.1676C8.88692 24.0347 9.12025 24.9014 9.37009 25.7675L15.135 24.1045C14.9049 23.3066 14.6902 22.5093 14.491 21.7124L8.67014 23.1676ZM9.37447 25.7825C9.61895 26.6137 9.86383 27.4219 10.1091 28.2068L15.836 26.4172C15.6013 25.6661 15.3662 24.8903 15.1307 24.0895L9.37447 25.7825ZM10.1146 28.2241C10.3599 28.9927 10.5982 29.716 10.8295 30.3934L16.5076 28.4546C16.2909 27.82 16.0652 27.1353 15.8305 26.3999L10.1146 28.2241ZM10.8512 30.4547C11.1098 31.1615 11.3692 31.8082 11.6305 32.3868L17.0987 29.9172C16.912 29.5038 16.7074 28.9985 16.4859 28.3933L10.8512 30.4547ZM11.5972 32.3104C12.2048 33.7619 13.3158 34.828 14.7714 35.3904L16.9338 29.7936C16.9212 29.7887 16.9722 29.8078 17.0388 29.8722C17.0692 29.9016 17.0932 29.9313 17.1105 29.957C17.1274 29.9822 17.1331 29.9966 17.1319 29.9936L11.5972 32.3104ZM14.851 35.4199C15.746 35.7369 16.6403 35.9856 17.5325 36.1602L18.6846 30.2718C18.1049 30.1584 17.4951 29.9911 16.8541 29.7641L14.851 35.4199ZM17.4578 36.1446C18.1225 36.2923 19.2092 36.4334 20.3094 35.9567C21.6708 35.3667 22.3367 34.1692 22.5119 33.0599L16.5853 32.1241C16.6167 31.9253 16.7058 31.594 16.9537 31.243C17.2146 30.8732 17.5636 30.6074 17.9237 30.4513C18.5439 30.1826 18.9586 30.3317 18.7594 30.2874L17.4578 36.1446ZM22.4731 33.2605C22.7263 32.1527 23.0279 30.8668 23.3783 29.4017L17.5428 28.0063C17.1892 29.4852 16.8828 30.7913 16.624 31.9235L22.4731 33.2605ZM23.3728 29.4242C23.7408 27.9363 24.1168 26.4164 24.5007 24.8645L18.6764 23.4235C18.2924 24.9756 17.9163 26.4957 17.5483 27.9838L23.3728 29.4242ZM24.4936 24.8927C24.8918 23.348 25.2898 21.8274 25.6878 20.3311L19.8893 18.7889C19.4873 20.3006 19.0854 21.836 18.6835 23.3953L24.4936 24.8927ZM25.6878 20.3311C26.0797 18.8575 26.4523 17.5544 26.8054 16.4184L21.0757 14.6376C20.6928 15.8696 20.2974 17.2545 19.8893 18.7889L25.6878 20.3311ZM26.8079 16.4103C27.0212 15.717 27.1831 14.8021 26.9651 13.8212L21.108 15.1228C21.061 14.9112 21.0662 14.7539 21.0729 14.6804C21.0795 14.6081 21.0895 14.5928 21.0732 14.6457L26.8079 16.4103ZM26.9999 14.0041C26.7409 12.3644 25.516 11.448 24.8507 11.0351L21.6865 16.1329C21.7547 16.1753 21.6706 16.1361 21.5395 15.9845C21.3995 15.8226 21.1574 15.473 21.0733 14.9399L26.9999 14.0041ZM24.8983 11.0653C24.5817 10.8604 24.2701 10.6717 23.9709 10.5106L21.1263 15.7934C21.243 15.8563 21.4115 15.9556 21.6388 16.1027L24.8983 11.0653ZM23.9709 10.5106C23.687 10.3577 23.3972 10.2176 23.1024 10.0948L20.7947 15.6332C20.8839 15.6704 20.9941 15.7222 21.1263 15.7934L23.9709 10.5106ZM23.19 10.1329C22.8446 9.97592 22.4883 9.85261 22.1242 9.76157L20.669 15.5824C20.6888 15.5874 20.7005 15.5921 20.7072 15.5951L23.19 10.1329ZM22.1242 9.76157C21.9506 9.71817 21.7501 9.66623 21.5216 9.60529L19.9756 15.4027C20.2271 15.4698 20.4586 15.5298 20.669 15.5824L22.1242 9.76157ZM21.4762 9.59357C20.7765 9.41865 19.6061 9.22183 18.4303 9.70597L20.7148 15.254C20.3651 15.398 20.0956 15.4031 20.0094 15.4014C19.9186 15.3995 19.9133 15.3875 20.021 15.4144L21.4762 9.59357ZM18.3701 9.73152C16.8439 10.3993 16.3057 11.8172 16.1046 12.5462L21.8885 14.1418C21.8982 14.1069 21.8681 14.241 21.7327 14.4441C21.5863 14.6638 21.2861 15.0049 20.775 15.2285L18.3701 9.73152ZM16.101 12.5592C15.6271 14.3077 15.1472 16.2119 14.6609 18.2703L20.5002 19.6497C20.974 17.6441 21.438 15.8043 21.8921 14.1288L16.101 12.5592ZM14.6558 18.2922C14.1753 20.3965 13.7698 22.5323 13.4389 24.6992L19.3702 25.6048C19.6794 23.5797 20.0578 21.5875 20.5053 19.6278L14.6558 18.2922Z" transform="translate(5.09998 0.5)" fill="black"/>
<path d="M6.216 13.944C5.784 13.656 5.28 13.384 4.704 13.128C4.128 12.872 3.592 12.68 3.096 12.552C2.6 12.408 2.224 12.392 1.968 12.504C1.728 12.6 1.536 12.88 1.392 13.344C1.216 14.096 1.024 14.976 0.816 15.984C0.608 16.976 0.4 18.032 0.192 19.152C0 20.272 -0.192 21.416 -0.384 22.584C-0.576 23.752 -0.744 24.864 -0.888 25.92C-1.048 26.976 -1.176 27.952 -1.272 28.848C-1.384 29.728 -1.456 30.448 -1.488 31.008C-1.536 31.424 -1.496 31.752 -1.368 31.992C-1.256 32.216 -1.016 32.416 -0.648 32.592C-0.312 32.768 0.04 32.912 0.408 33.024C0.792 33.136 1.192 33.248 1.608 33.36C2.024 33.456 2.296 33.464 2.424 33.384C2.568 33.304 2.68 33.128 2.76 32.856C2.904 32.136 3.072 31.32 3.264 30.408C3.472 29.48 3.696 28.504 3.936 27.48C4.176 26.44 4.424 25.384 4.68 24.312C4.936 23.224 5.192 22.168 5.448 21.144C5.72 20.104 5.984 19.12 6.24 18.192C6.512 17.264 6.76 16.44 6.984 15.72C7.096 15.288 7.104 14.96 7.008 14.736C6.928 14.512 6.664 14.248 6.216 13.944ZM16.4046 25.152C16.2286 24.336 16.0526 23.488 15.8766 22.608C15.7006 21.712 15.5326 20.848 15.3726 20.016C15.2126 19.168 15.0686 18.384 14.9406 17.664C14.8126 16.944 14.7086 16.352 14.6286 15.888C14.5326 15.28 14.3806 14.824 14.1726 14.52C13.9646 14.2 13.6126 13.936 13.1166 13.728C12.5086 13.44 11.9246 13.208 11.3646 13.032C10.8046 12.856 10.2286 12.68 9.63656 12.504C9.14056 12.376 8.74856 12.376 8.46056 12.504C8.17256 12.616 7.97256 12.912 7.86056 13.392C7.68456 14.224 7.50056 15.176 7.30856 16.248C7.13256 17.32 6.95656 18.432 6.78056 19.584C6.60456 20.736 6.44456 21.896 6.30056 23.064C6.14056 24.216 6.00456 25.304 5.89256 26.328C5.76456 27.336 5.66856 28.24 5.60456 29.04C5.52456 29.84 5.46856 30.456 5.43656 30.888C5.40456 31.304 5.45256 31.632 5.58056 31.872C5.69256 32.096 5.92456 32.296 6.27656 32.472C6.64456 32.696 7.02056 32.864 7.40456 32.976C7.80456 33.072 8.19656 33.168 8.58056 33.264C8.99656 33.376 9.27656 33.392 9.42056 33.312C9.56456 33.248 9.66856 33.08 9.73256 32.808C9.81256 32.232 9.91656 31.56 10.0446 30.792C10.1886 30.008 10.3406 29.168 10.5006 28.272C10.6766 27.36 10.8526 26.408 11.0286 25.416C11.2206 24.424 11.4046 23.432 11.5806 22.44C11.7886 23.272 12.0126 24.104 12.2526 24.936C12.4926 25.752 12.7326 26.544 12.9726 27.312C13.2126 28.064 13.4446 28.768 13.6686 29.424C13.9086 30.08 14.1406 30.656 14.3646 31.152C14.6526 31.84 15.1486 32.32 15.8526 32.592C16.6206 32.864 17.3726 33.072 18.1086 33.216C18.9726 33.408 19.4526 33.2 19.5486 32.592C19.8046 31.472 20.1086 30.176 20.4606 28.704C20.8286 27.216 21.2046 25.696 21.5886 24.144C21.9886 22.592 22.3886 21.064 22.7886 19.56C23.1886 18.056 23.5726 16.712 23.9406 15.528C24.0686 15.112 24.1006 14.76 24.0366 14.472C23.9886 14.168 23.7326 13.872 23.2686 13.584C22.9966 13.408 22.7566 13.264 22.5486 13.152C22.3406 13.04 22.1406 12.944 21.9486 12.864C21.7726 12.784 21.5886 12.72 21.3966 12.672C21.2046 12.624 20.9886 12.568 20.7486 12.504C20.2366 12.376 19.8446 12.368 19.5726 12.48C19.3166 12.592 19.1246 12.88 18.9966 13.344C18.5326 15.056 18.0606 16.928 17.5806 18.96C17.1166 20.992 16.7246 23.056 16.4046 25.152Z" transform="translate(5.09998 0.5)" fill="#FF589E"/>
</svg>
