<svg width="40" height="41" viewBox="0 0 40 41" fill="none" xmlns="http://www.w3.org/2000/svg">
<path d="M13.032 16.392C13.512 16.328 13.808 16.232 13.92 16.104C14.032 15.96 14.056 15.68 13.992 15.264C13.928 14.576 13.68 13.872 13.248 13.152C13.104 12.928 12.968 12.752 12.84 12.624C12.712 12.48 12.576 12.376 12.432 12.312C12.304 12.232 12.152 12.184 11.976 12.168C11.816 12.136 11.616 12.12 11.376 12.12C10.416 12.152 9.44 12.208 8.448 12.288C7.472 12.368 6.512 12.472 5.568 12.6C4.624 12.712 3.72 12.848 2.856 13.008C2.008 13.152 1.24 13.32 0.552 13.512C0.6 14.296 0.592 15.208 0.528 16.248C0.464 17.288 0.36 18.384 0.216 19.536C0.088 20.672 -0.064 21.824 -0.24 22.992C-0.416 24.16 -0.584 25.264 -0.744 26.304C-0.904 27.328 -1.04 28.256 -1.152 29.088C-1.28 29.904 -1.352 30.536 -1.368 30.984C-1.368 31.4 -1.328 31.72 -1.248 31.944C-1.168 32.168 -0.928 32.376 -0.528 32.568C-0.224 32.696 0.128 32.832 0.528 32.976C0.944 33.12 1.336 33.216 1.704 33.264C2.072 33.328 2.384 33.328 2.64 33.264C2.896 33.216 3.032 33.048 3.048 32.76C3.24 31.896 3.448 30.912 3.672 29.808C3.912 28.688 4.184 27.512 4.488 26.28C5.4 26.088 6.32 25.904 7.248 25.728C8.176 25.552 9.096 25.392 10.008 25.248C10.44 25.2 10.712 25.112 10.824 24.984C10.952 24.84 10.952 24.584 10.824 24.216C10.744 23.896 10.648 23.584 10.536 23.28C10.44 22.96 10.296 22.64 10.104 22.32C9.752 21.776 9.184 21.528 8.4 21.576C7.904 21.592 7.416 21.624 6.936 21.672C6.472 21.704 6.008 21.744 5.544 21.792C5.816 20.928 6.032 20.104 6.192 19.32C6.368 18.536 6.568 17.816 6.792 17.16C7.928 17 9.008 16.864 10.032 16.752C11.072 16.64 12.072 16.52 13.032 16.392ZM24.7275 23.808C25.2715 23.536 25.7435 23.256 26.1435 22.968C26.5435 22.664 26.9355 22.368 27.3195 22.08C27.6715 21.776 27.9995 21.456 28.3035 21.12C28.6075 20.768 28.8635 20.392 29.0715 19.992C29.2795 19.592 29.4235 19.176 29.5035 18.744C29.5995 18.312 29.6075 17.864 29.5275 17.4C29.3515 16.552 29.0715 15.808 28.6875 15.168C28.3195 14.528 27.8555 13.928 27.2955 13.368C26.8635 12.952 26.3115 12.64 25.6395 12.432C24.9675 12.208 24.2235 12.072 23.4075 12.024C22.6075 11.976 21.7595 12 20.8635 12.096C19.9675 12.192 19.0795 12.344 18.1995 12.552C17.3355 12.76 16.5035 13.008 15.7035 13.296C14.9035 13.584 14.1995 13.896 13.5915 14.232C13.5595 15.464 13.4795 16.768 13.3515 18.144C13.2395 19.504 13.1115 20.864 12.9675 22.224C12.8075 23.568 12.6635 24.872 12.5355 26.136C12.4075 27.384 12.3195 28.504 12.2715 29.496C12.2395 29.8 12.2395 30.048 12.2715 30.24C12.3035 30.432 12.3595 30.608 12.4395 30.768C12.5195 30.912 12.6315 31.056 12.7755 31.2C12.9035 31.328 13.0555 31.488 13.2315 31.68C13.7115 32.048 14.1275 32.352 14.4795 32.592C14.8475 32.816 15.2715 33.032 15.7515 33.24C16.0075 33.384 16.2315 33.488 16.4235 33.552C16.6155 33.616 16.8075 33.656 16.9995 33.672C17.2075 33.688 17.4155 33.68 17.6235 33.648C17.8475 33.616 18.1115 33.56 18.4155 33.48C18.9915 33.336 19.5995 33.16 20.2395 32.952C20.8795 32.728 21.5115 32.48 22.1355 32.208C22.7755 31.936 23.3755 31.632 23.9355 31.296C24.5115 30.96 25.0075 30.608 25.4235 30.24C26.0315 29.76 26.4715 29.272 26.7435 28.776C27.0155 28.264 27.1115 27.648 27.0315 26.928C26.9035 26.32 26.6395 25.728 26.2395 25.152C25.8555 24.576 25.3515 24.128 24.7275 23.808ZM18.3915 22.104C18.6155 21.256 18.8075 20.456 18.9675 19.704C19.1275 18.952 19.3195 18.232 19.5435 17.544C20.2315 17.224 20.8715 16.984 21.4635 16.824C22.0555 16.664 22.5755 16.576 23.0235 16.56C23.4875 16.528 23.8635 16.568 24.1515 16.68C24.4395 16.776 24.6155 16.928 24.6795 17.136C24.7435 17.392 24.6475 17.736 24.3915 18.168C24.1355 18.584 23.7275 19.032 23.1675 19.512C22.6235 19.976 21.9435 20.44 21.1275 20.904C20.3275 21.368 19.4155 21.768 18.3915 22.104ZM17.4795 26.088C18.1195 25.88 18.7035 25.744 19.2315 25.68C19.7595 25.6 20.2235 25.584 20.6235 25.632C21.0235 25.68 21.3435 25.768 21.5835 25.896C21.8235 26.024 21.9835 26.168 22.0635 26.328C22.1275 26.6 22.0395 26.904 21.7995 27.24C21.5755 27.56 21.2235 27.888 20.7435 28.224C20.2635 28.544 19.6795 28.856 18.9915 29.16C18.3035 29.448 17.5435 29.696 16.7115 29.904C16.8235 29.264 16.9435 28.64 17.0715 28.032C17.2155 27.408 17.3515 26.76 17.4795 26.088Z" transform="translate(5.8999 0.5)" fill="#4267B2"/>
<path d="M13.032 16.392L13.5607 20.3569L13.5607 20.3569L13.032 16.392ZM13.92 16.104L16.9303 18.738L17.0064 18.651L17.0774 18.5598L13.92 16.104ZM13.992 15.264L10.0092 15.6345L10.0203 15.7538L10.0385 15.8722L13.992 15.264ZM13.248 13.152L16.678 11.094L16.6462 11.041L16.6127 10.989L13.248 13.152ZM12.84 12.624L9.85037 15.2815L9.92846 15.3693L10.0116 15.4524L12.84 12.624ZM12.432 12.312L10.312 15.704L10.5505 15.853L10.8074 15.9672L12.432 12.312ZM11.976 12.168L11.1915 16.0903L11.4011 16.1322L11.6139 16.1516L11.976 12.168ZM11.376 12.12V8.12H11.3094L11.2427 8.12222L11.376 12.12ZM8.448 12.288L8.12646 8.30094L8.12123 8.30137L8.448 12.288ZM5.568 12.6L6.03927 16.5721L6.0724 16.5682L6.10546 16.5637L5.568 12.6ZM2.856 13.008L3.52566 16.9515L3.55505 16.9466L3.58436 16.9411L2.856 13.008ZM0.552 13.512L-0.523198 9.65921L-3.63815 10.5285L-3.44052 13.7564L0.552 13.512ZM0.528 16.248L4.52045 16.4937L4.52045 16.4937L0.528 16.248ZM0.216 19.536L-3.75311 19.0399L-3.75613 19.064L-3.75885 19.0881L0.216 19.536ZM-0.24 22.992L-4.19535 22.396L-4.19535 22.396L-0.24 22.992ZM-0.744 26.304L3.20806 26.9215L3.20949 26.9122L-0.744 26.304ZM-1.152 29.088L2.79968 29.7079L2.80643 29.6648L2.81224 29.6216L-1.152 29.088ZM-1.368 30.984L-5.36545 30.8412L-5.368 30.9126V30.984H-1.368ZM-1.248 31.944L2.51897 30.5987L2.51897 30.5987L-1.248 31.944ZM-0.528 32.568L-2.25892 36.1741L-2.17056 36.2165L-2.08023 36.2545L-0.528 32.568ZM0.528 32.976L-0.826878 36.7395L-0.803711 36.7479L-0.780442 36.7559L0.528 32.976ZM1.704 33.264L2.38936 29.3232L2.30563 29.3086L2.22136 29.2976L1.704 33.264ZM2.64 33.264L1.90285 29.3325L1.78559 29.3545L1.66986 29.3834L2.64 33.264ZM3.048 32.76L-0.856748 31.8923L-0.927699 32.2116L-0.945841 32.5381L3.048 32.76ZM3.672 29.808L-0.239209 28.9699L-0.243782 28.9912L-0.248122 29.0126L3.672 29.808ZM4.488 26.28L3.66396 22.3658L1.20619 22.8832L0.604481 25.3217L4.488 26.28ZM7.248 25.728L7.99333 29.6579L7.99334 29.6579L7.248 25.728ZM10.008 25.248L9.56628 21.2725L9.47493 21.2826L9.38415 21.2969L10.008 25.248ZM10.824 24.984L7.83436 22.3265L7.82398 22.3382L7.81369 22.35L10.824 24.984ZM10.824 24.216L6.94343 25.1861L6.987 25.3604L7.04601 25.5301L10.824 24.216ZM10.536 23.28L6.70469 24.4294L6.74007 24.5473L6.78263 24.6628L10.536 23.28ZM10.104 22.32L13.534 20.262L13.4991 20.2039L13.4623 20.147L10.104 22.32ZM8.4 21.576L8.52896 25.5739L8.58674 25.5721L8.64444 25.5685L8.4 21.576ZM6.936 21.672L7.21121 25.6625L7.27269 25.6583L7.33401 25.6521L6.936 21.672ZM5.544 21.792L1.7286 20.5909L-0.0993007 26.3971L5.9556 25.7708L5.544 21.792ZM6.192 19.32L2.28914 18.4438L2.28059 18.4819L2.27278 18.5202L6.192 19.32ZM6.792 17.16L6.23413 13.1991L3.80071 13.5418L3.0066 15.8674L6.792 17.16ZM10.032 16.752L9.60371 12.775L9.59709 12.7757L10.032 16.752ZM13.5607 20.3569C13.9239 20.3085 14.3806 20.2285 14.848 20.0769C15.1966 19.9638 16.148 19.632 16.9303 18.738L10.9097 13.47C11.28 13.0467 11.6581 12.8076 11.8765 12.6877C12.1053 12.562 12.2892 12.4965 12.38 12.4671C12.5514 12.4115 12.6201 12.4115 12.5033 12.4271L13.5607 20.3569ZM17.0774 18.5598C17.7996 17.6312 17.9624 16.6522 18.0074 16.1276C18.0564 15.556 18.0044 15.0389 17.9455 14.6558L10.0385 15.8722C10.0436 15.9051 10.0116 15.736 10.0366 15.4444C10.0576 15.1998 10.1524 14.4328 10.7626 13.6482L17.0774 18.5598ZM17.9748 14.8935C17.8446 13.4941 17.3531 12.2193 16.678 11.094L9.81803 15.21C10.0069 15.5247 10.0114 15.6579 10.0092 15.6345L17.9748 14.8935ZM16.6127 10.989C16.3793 10.6259 16.0687 10.1959 15.6684 9.79557L10.0116 15.4524C9.93183 15.3727 9.88634 15.3152 9.87286 15.2978C9.85817 15.2788 9.86198 15.2819 9.88329 15.315L16.6127 10.989ZM15.8296 9.96654C15.4053 9.48921 14.8241 8.99787 14.0566 8.65675L10.8074 15.9672C10.3279 15.7541 10.0187 15.4708 9.85037 15.2815L15.8296 9.96654ZM14.552 8.92001C13.8087 8.45547 13.0319 8.2475 12.3381 8.18443L11.6139 16.1516C11.2721 16.1205 10.7993 16.0085 10.312 15.704L14.552 8.92001ZM12.7605 8.24568C12.2525 8.14408 11.7687 8.12 11.376 8.12V16.12C11.4094 16.12 11.4113 16.1212 11.387 16.1193C11.3647 16.1175 11.2954 16.1111 11.1915 16.0903L12.7605 8.24568ZM11.2427 8.12222C10.2177 8.15639 9.17889 8.21607 8.12646 8.30094L8.76954 16.2751C9.70112 16.1999 10.6143 16.1476 11.5093 16.1178L11.2427 8.12222ZM8.12123 8.30137C7.07677 8.38698 6.04648 8.49852 5.03054 8.63627L6.10546 16.5637C6.97752 16.4455 7.86723 16.349 8.77477 16.2746L8.12123 8.30137ZM5.09673 8.62786C4.07354 8.74925 3.08347 8.89787 2.12764 9.07487L3.58436 16.9411C4.35653 16.7981 5.17446 16.6747 6.03927 16.5721L5.09673 8.62786ZM2.18634 9.06445C1.22823 9.22715 0.321957 9.42336 -0.523198 9.65921L1.6272 17.3648C2.15804 17.2166 2.78777 17.0768 3.52566 16.9515L2.18634 9.06445ZM-3.44052 13.7564C-3.40513 14.3345 -3.40747 15.0764 -3.46445 16.0023L4.52045 16.4937C4.59147 15.3396 4.60513 14.2575 4.54452 13.2676L-3.44052 13.7564ZM-3.46445 16.0023C-3.52275 16.9498 -3.61836 17.9618 -3.75311 19.0399L4.18511 20.0321C4.33836 18.8062 4.45075 17.6262 4.52045 16.4937L-3.46445 16.0023ZM-3.75885 19.0881C-3.88109 20.173 -4.02652 21.2756 -4.19535 22.396L3.71535 23.588C3.89852 22.3724 4.05709 21.171 4.19085 19.9839L-3.75885 19.0881ZM-4.19535 22.396C-4.37081 23.5604 -4.53818 24.6603 -4.69749 25.6958L3.20949 26.9122C3.37018 25.8677 3.53881 24.7596 3.71535 23.588L-4.19535 22.396ZM-4.69605 25.6865C-4.85945 26.7322 -4.99972 27.6888 -5.11624 28.5544L2.81224 29.6216C2.91972 28.8232 3.05145 27.9238 3.20805 26.9215L-4.69605 25.6865ZM-5.10368 28.4681C-5.23955 29.3343 -5.34085 30.1525 -5.36545 30.8412L2.62945 31.1268C2.63685 30.9195 2.67955 30.4737 2.79968 29.7079L-5.10368 28.4681ZM-5.368 30.984C-5.368 31.5686 -5.32331 32.426 -5.01497 33.2893L2.51897 30.5987C2.56403 30.7248 2.59036 30.8273 2.60559 30.8964C2.621 30.9662 2.6281 31.0158 2.63111 31.0399C2.63658 31.0836 2.632 31.0709 2.632 30.984H-5.368ZM-5.01497 33.2893C-4.37749 35.0743 -2.87181 35.8799 -2.25892 36.1741L1.20292 28.9619C1.20719 28.964 1.37992 29.0443 1.61172 29.2452C1.84391 29.4465 2.26247 29.8805 2.51897 30.5987L-5.01497 33.2893ZM-2.08023 36.2545C-1.69573 36.4164 -1.27549 36.578 -0.826878 36.7395L1.88288 29.2125C1.53149 29.086 1.24773 28.9756 1.02423 28.8815L-2.08023 36.2545ZM-0.780442 36.7559C-0.153701 36.9729 0.505034 37.1415 1.18664 37.2304L2.22136 29.2976C2.16697 29.2905 2.0417 29.2671 1.83644 29.1961L-0.780442 36.7559ZM1.01864 37.2048C1.7244 37.3276 2.63667 37.3879 3.61014 37.1446L1.66986 29.3834C1.91052 29.3233 2.10054 29.312 2.214 29.312C2.27221 29.312 2.31624 29.315 2.34431 29.3176C2.37245 29.3202 2.38787 29.3229 2.38936 29.3232L1.01864 37.2048ZM3.37715 37.1955C4.23887 37.0339 5.26087 36.5849 6.04298 35.6188C6.79104 34.6947 7.00264 33.6875 7.04184 32.9819L-0.945841 32.5381C-0.922641 32.1205 -0.78704 31.3413 -0.17498 30.5852C0.471132 29.7871 1.29713 29.4461 1.90285 29.3325L3.37715 37.1955ZM6.95275 33.6277C7.1513 32.7342 7.36447 31.7254 7.59212 30.6034L-0.248122 29.0126C-0.468468 30.0986 -0.671302 31.0578 -0.856748 31.8923L6.95275 33.6277ZM7.58321 30.6461C7.81374 29.5703 8.07633 28.4346 8.37152 27.2383L0.604481 25.3217C0.291668 26.5894 0.0102619 27.8057 -0.239209 28.9699L7.58321 30.6461ZM5.31204 30.1942C6.19751 30.0078 7.09127 29.829 7.99333 29.6579L6.50267 21.7981C5.54873 21.979 4.60249 22.1682 3.66396 22.3658L5.31204 30.1942ZM7.99334 29.6579C8.88188 29.4894 9.76137 29.3365 10.6319 29.1991L9.38415 21.2969C8.43063 21.4475 7.47013 21.6146 6.50267 21.7981L7.99334 29.6579ZM10.4497 29.2235C10.8108 29.1834 11.2787 29.1099 11.7673 28.9518C12.1761 28.8195 13.0795 28.4807 13.8343 27.618L7.81369 22.35C8.15806 21.9564 8.51203 21.7195 8.74895 21.5862C8.98962 21.4508 9.18985 21.3774 9.30472 21.3402C9.52131 21.2701 9.63716 21.2646 9.56628 21.2725L10.4497 29.2235ZM13.8136 27.6415C14.7173 26.6248 14.92 25.4643 14.92 24.684C14.92 23.9392 14.7444 23.3115 14.602 22.9019L7.04601 25.5301C7.03157 25.4885 6.92 25.1728 6.92 24.684C6.92 24.1597 7.05869 23.1992 7.83436 22.3265L13.8136 27.6415ZM14.7046 23.2459C14.5903 22.7886 14.4521 22.3388 14.2894 21.8972L6.78263 24.6628C6.84394 24.8292 6.89774 25.0034 6.94343 25.1861L14.7046 23.2459ZM14.3673 22.1306C14.1654 21.4576 13.8773 20.8343 13.534 20.262L6.67403 24.378C6.71467 24.4457 6.71459 24.4624 6.70469 24.4294L14.3673 22.1306ZM13.4623 20.147C12.147 18.1143 10.0192 17.4694 8.15556 17.5835L8.64444 25.5685C8.56889 25.5731 8.24424 25.5799 7.81343 25.3918C7.34392 25.1868 6.97591 24.8487 6.74572 24.493L13.4623 20.147ZM8.27104 17.5781C7.68775 17.5969 7.10996 17.6347 6.53799 17.6919L7.33401 25.6521C7.72204 25.6133 8.12026 25.5871 8.52896 25.5739L8.27104 17.5781ZM6.66079 17.6815C6.15113 17.7166 5.64166 17.7606 5.1324 17.8132L5.9556 25.7708C6.37434 25.7274 6.79287 25.6914 7.21121 25.6625L6.66079 17.6815ZM9.3594 22.9931C9.6676 22.0141 9.92024 21.0556 10.1112 20.1198L2.27278 18.5202C2.14376 19.1524 1.9644 19.8419 1.7286 20.5909L9.3594 22.9931ZM10.0949 20.1962C10.2441 19.5314 10.4067 18.9526 10.5774 18.4526L3.0066 15.8674C2.72933 16.6794 2.49191 17.5406 2.28914 18.4438L10.0949 20.1962ZM7.34987 21.1209C8.44949 20.966 9.48827 20.8353 10.4669 20.7283L9.59709 12.7757C8.52773 12.8927 7.40651 13.034 6.23413 13.1991L7.34987 21.1209ZM10.4603 20.729C11.5312 20.6137 12.5647 20.4897 13.5607 20.3569L12.5033 12.4271C11.5793 12.5503 10.6128 12.6663 9.60371 12.775L10.4603 20.729ZM24.7275 23.808L22.9386 20.2303L15.8736 23.7628L22.9022 27.3673L24.7275 23.808ZM26.1435 22.968L28.4807 26.2141L28.5227 26.1839L28.5638 26.1526L26.1435 22.968ZM27.3195 22.08L29.7195 25.28L29.8297 25.1973L29.934 25.1073L27.3195 22.08ZM28.3035 21.12L31.2696 23.8037L31.3006 23.7694L31.3308 23.7345L28.3035 21.12ZM29.0715 19.992L25.5226 18.1466L25.5226 18.1466L29.0715 19.992ZM29.5035 18.744L25.5988 17.8763L25.5833 17.9457L25.5704 18.0156L29.5035 18.744ZM29.5275 17.4L33.4693 16.7204L33.4578 16.6535L33.444 16.5871L29.5275 17.4ZM28.6875 15.168L25.2199 17.1619L25.2384 17.1941L25.2575 17.226L28.6875 15.168ZM27.2955 13.368L30.1239 10.5396L30.0972 10.5129L30.0701 10.4867L27.2955 13.368ZM25.6395 12.432L24.3746 16.2267L24.4155 16.2404L24.4568 16.2531L25.6395 12.432ZM23.4075 12.024L23.1679 16.0168L23.1726 16.0171L23.4075 12.024ZM20.8635 12.096L20.4374 8.11876L20.4374 8.11876L20.8635 12.096ZM18.1995 12.552L17.2794 8.65926L17.2713 8.66117L17.2633 8.6631L18.1995 12.552ZM15.7035 13.296L14.3486 9.53245L14.3486 9.53245L15.7035 13.296ZM13.5915 14.232L11.6568 10.731L9.65231 11.8387L9.59285 14.1281L13.5915 14.232ZM13.3515 18.144L9.3687 17.7735L9.36673 17.7946L9.365 17.8157L13.3515 18.144ZM12.9675 22.224L16.9395 22.6969L16.9425 22.671L16.9453 22.6452L12.9675 22.224ZM12.5355 26.136L16.5146 26.5441L16.5151 26.539L12.5355 26.136ZM12.2715 29.496L16.2495 29.9147L16.2614 29.8023L16.2668 29.6893L12.2715 29.496ZM12.2715 30.24L8.32592 30.8976L8.32592 30.8976L12.2715 30.24ZM12.4395 30.768L8.86179 32.5569L8.90066 32.6346L8.94287 32.7106L12.4395 30.768ZM12.7755 31.2L9.94707 34.0284L9.94707 34.0284L12.7755 31.2ZM13.2315 31.68L10.2829 34.3829L10.5197 34.6412L10.7978 34.8544L13.2315 31.68ZM14.4795 32.592L12.2262 35.8969L12.3115 35.9551L12.3997 36.0088L14.4795 32.592ZM15.7515 33.24L17.7125 29.7537L17.532 29.6521L17.3419 29.5698L15.7515 33.24ZM16.4235 33.552L15.1586 37.3467L15.1586 37.3467L16.4235 33.552ZM16.9995 33.672L16.6673 37.6582L16.68 37.6592L16.6927 37.6602L16.9995 33.672ZM17.6235 33.648L17.0578 29.6882L17.0365 29.6912L17.0153 29.6945L17.6235 33.648ZM18.4155 33.48L17.4454 29.5994L17.4214 29.6054L17.3975 29.6117L18.4155 33.48ZM20.2395 32.952L21.4758 36.7561L21.5185 36.7423L21.5609 36.7274L20.2395 32.952ZM22.1355 32.208L20.5709 28.5267L20.554 28.5339L20.5372 28.5412L22.1355 32.208ZM23.9355 31.296L21.92 27.8409L21.8987 27.8533L21.8775 27.866L23.9355 31.296ZM25.4235 30.24L22.9449 27.1005L22.8571 27.1698L22.7732 27.244L25.4235 30.24ZM26.7435 28.776L30.2508 30.6993L30.2635 30.6761L30.276 30.6526L26.7435 28.776ZM27.0315 26.928L31.007 26.4863L30.9856 26.2936L30.9457 26.104L27.0315 26.928ZM26.2395 25.152L22.9113 27.3708L22.9324 27.4024L22.954 27.4336L26.2395 25.152ZM18.3915 22.104L14.5241 21.0824L12.6441 28.1997L19.6386 25.9046L18.3915 22.104ZM18.9675 19.704L22.8799 20.5364L22.8799 20.5364L18.9675 19.704ZM19.5435 17.544L17.8566 13.9171L16.2787 14.651L15.74 16.3057L19.5435 17.544ZM23.0235 16.56L23.1663 20.5574L23.2325 20.5551L23.2987 20.5505L23.0235 16.56ZM24.1515 16.68L22.7017 20.408L22.7933 20.4436L22.8866 20.4747L24.1515 16.68ZM24.6795 17.136L28.5601 16.1659L28.5341 16.062L28.5026 15.9597L24.6795 17.136ZM24.3915 18.168L27.7981 20.2644L27.8156 20.2359L27.8327 20.2072L24.3915 18.168ZM23.1675 19.512L25.7633 22.5553L25.7707 22.549L23.1675 19.512ZM21.1275 20.904L19.1503 17.4268L19.1354 17.4353L19.1206 17.4439L21.1275 20.904ZM17.4795 26.088L16.2432 22.2839L13.9929 23.0152L13.5501 25.3396L17.4795 26.088ZM19.2315 25.68L19.7128 29.6509L19.7719 29.6438L19.8307 29.6349L19.2315 25.68ZM21.5835 25.896L19.7011 29.4254L19.7012 29.4254L21.5835 25.896ZM22.0635 26.328L25.9572 25.4118L25.8502 24.957L25.6412 24.5391L22.0635 26.328ZM21.7995 27.24L18.5446 24.915L18.5335 24.9305L18.5226 24.9462L21.7995 27.24ZM20.7435 28.224L22.9623 31.5522L23.0001 31.527L23.0373 31.5009L20.7435 28.224ZM18.9915 29.16L20.5361 32.8498L20.5723 32.8346L20.6082 32.8187L18.9915 29.16ZM16.7115 29.904L12.7714 29.2145L11.7104 35.2774L17.6816 33.7846L16.7115 29.904ZM17.0715 28.032L13.1739 27.1326L13.1653 27.1702L13.1573 27.208L17.0715 28.032ZM26.5164 27.3857C27.2093 27.0392 27.8725 26.6521 28.4807 26.2141L23.8063 19.7219C23.6145 19.8599 23.3337 20.0328 22.9386 20.2303L26.5164 27.3857ZM28.5638 26.1526C28.9574 25.8535 29.3426 25.5627 29.7195 25.28L24.9195 18.88C24.5284 19.1733 24.1296 19.4745 23.7232 19.7834L28.5638 26.1526ZM29.934 25.1073C30.4069 24.6989 30.8527 24.2645 31.2696 23.8037L25.3374 18.4363C25.1463 18.6475 24.9361 18.8531 24.705 19.0527L29.934 25.1073ZM31.3308 23.7345C31.8315 23.1547 32.2645 22.5218 32.6204 21.8374L25.5226 18.1466C25.4625 18.2622 25.3835 18.3813 25.2762 18.5055L31.3308 23.7345ZM32.6204 21.8374C33.0062 21.0954 33.2827 20.3038 33.4366 19.4724L25.5704 18.0156C25.5644 18.0482 25.5528 18.0886 25.5226 18.1466L32.6204 21.8374ZM33.4082 19.6117C33.6243 18.6393 33.6321 17.6644 33.4693 16.7204L25.5857 18.0796C25.5851 18.0762 25.5814 18.0526 25.5821 18.0126C25.5829 17.972 25.5879 17.9251 25.5988 17.8763L33.4082 19.6117ZM33.444 16.5871C33.1912 15.3689 32.7661 14.191 32.1175 13.11L25.2575 17.226C25.3769 17.425 25.5118 17.7351 25.611 18.2129L33.444 16.5871ZM32.1551 13.1741C31.5994 12.2077 30.9148 11.3304 30.1239 10.5396L24.4671 16.1964C24.7962 16.5256 25.0396 16.8483 25.2199 17.1619L32.1551 13.1741ZM30.0701 10.4867C29.1165 9.56844 27.988 8.9717 26.8222 8.61086L24.4568 16.2531C24.5489 16.2817 24.5876 16.3033 24.5893 16.3042C24.5901 16.3047 24.5829 16.3007 24.57 16.2911C24.5569 16.2814 24.5399 16.2676 24.5209 16.2493L30.0701 10.4867ZM26.9044 8.63727C25.8527 8.28671 24.7564 8.09643 23.6424 8.0309L23.1726 16.0171C23.6906 16.0476 24.0823 16.1293 24.3746 16.2267L26.9044 8.63727ZM23.6471 8.03118C22.5998 7.96834 21.5277 8.00195 20.4374 8.11876L21.2896 16.0732C21.9913 15.9981 22.6152 15.9837 23.1679 16.0168L23.6471 8.03118ZM20.4374 8.11876C19.3745 8.23264 18.3216 8.41293 17.2794 8.65926L19.1196 16.4447C19.8374 16.2751 20.5605 16.1514 21.2896 16.0732L20.4374 8.11876ZM17.2633 8.6631C16.2639 8.9037 15.2918 9.19291 14.3486 9.53245L17.0584 17.0595C17.7152 16.8231 18.4071 16.6163 19.1357 16.4409L17.2633 8.6631ZM14.3486 9.53245C13.3912 9.87713 12.4865 10.2725 11.6568 10.731L15.5262 17.733C15.9125 17.5195 16.4158 17.2909 17.0584 17.0595L14.3486 9.53245ZM9.59285 14.1281C9.56342 15.2612 9.48942 16.4757 9.3687 17.7735L17.3343 18.5145C17.4696 17.0603 17.5556 15.6668 17.5902 14.3359L9.59285 14.1281ZM9.365 17.8157C9.25555 19.1446 9.13047 20.4737 8.98974 21.8028L16.9453 22.6452C17.0925 21.2543 17.2234 19.8634 17.338 18.4723L9.365 17.8157ZM8.99555 21.7511C8.83296 23.1169 8.68636 24.4442 8.55585 25.733L16.5151 26.539C16.6406 25.2998 16.782 24.0191 16.9395 22.6969L8.99555 21.7511ZM8.55637 25.7279C8.42285 27.0297 8.32841 28.2232 8.27617 29.3027L16.2668 29.6893C16.3106 28.7848 16.3921 27.7383 16.5146 26.5441L8.55637 25.7279ZM8.29348 29.0773C8.24259 29.5607 8.21094 30.2077 8.32592 30.8976L16.2171 29.5824C16.2455 29.7532 16.2475 29.8703 16.2475 29.91C16.2475 29.9535 16.2449 29.9582 16.2495 29.9147L8.29348 29.0773ZM8.32592 30.8976C8.41773 31.4484 8.58849 32.0102 8.86179 32.5569L16.0172 28.9791C16.1305 29.2058 16.1893 29.4156 16.2171 29.5824L8.32592 30.8976ZM8.94287 32.7106C9.24002 33.2454 9.59958 33.6809 9.94707 34.0284L15.6039 28.3716C15.6634 28.4311 15.799 28.5786 15.9361 28.8254L8.94287 32.7106ZM9.94707 34.0284C10.0207 34.102 10.1307 34.2168 10.2829 34.3829L16.1801 28.9771C15.9803 28.7592 15.7863 28.554 15.6039 28.3716L9.94707 34.0284ZM10.7978 34.8544C11.3145 35.2506 11.7934 35.6018 12.2262 35.8969L16.7328 29.2871C16.4616 29.1022 16.1085 28.8454 15.6652 28.5056L10.7978 34.8544ZM12.3997 36.0088C12.9538 36.3461 13.5467 36.644 14.1611 36.9102L17.3419 29.5698C16.9963 29.42 16.7412 29.2859 16.5593 29.1752L12.3997 36.0088ZM13.7905 36.7263C14.1784 36.9445 14.644 37.1752 15.1586 37.3467L17.6884 29.7573C17.7268 29.7701 17.7547 29.7808 17.7714 29.7875C17.7881 29.7943 17.7965 29.7982 17.7959 29.798C17.7955 29.7977 17.7881 29.7943 17.7736 29.7868C17.7591 29.7793 17.7388 29.7685 17.7125 29.7537L13.7905 36.7263ZM15.1586 37.3467C15.6376 37.5064 16.1423 37.6144 16.6673 37.6582L17.3317 29.6858C17.4727 29.6976 17.5934 29.7256 17.6884 29.7573L15.1586 37.3467ZM16.6927 37.6602C17.2087 37.6999 17.7237 37.6796 18.2317 37.6015L17.0153 29.6945C17.1073 29.6804 17.2063 29.6761 17.3063 29.6838L16.6927 37.6602ZM18.1892 37.6078C18.6113 37.5475 19.0332 37.4536 19.4335 37.3483L17.3975 29.6117C17.1898 29.6664 17.0837 29.6845 17.0578 29.6882L18.1892 37.6078ZM19.3856 37.3606C20.0621 37.1915 20.7594 36.989 21.4758 36.7561L19.0032 29.1479C18.4396 29.331 17.9209 29.4805 17.4454 29.5994L19.3856 37.3606ZM21.5609 36.7274C22.2949 36.4705 23.0193 36.1863 23.7338 35.8748L20.5372 28.5412C20.0037 28.7737 19.4641 28.9855 18.9181 29.1766L21.5609 36.7274ZM23.7001 35.8893C24.4993 35.5497 25.2652 35.163 25.9935 34.726L21.8775 27.866C21.4858 28.101 21.0517 28.3223 20.5709 28.5267L23.7001 35.8893ZM25.951 34.7511C26.7097 34.3085 27.4274 33.8078 28.0738 33.236L22.7732 27.244C22.5876 27.4082 22.3133 27.6115 21.92 27.8409L25.951 34.7511ZM27.9021 33.3795C28.7853 32.6823 29.6445 31.8049 30.2508 30.6993L23.2362 26.8527C23.2709 26.7895 23.2838 26.7855 23.2387 26.8355C23.1934 26.8857 23.1026 26.976 22.9449 27.1005L27.9021 33.3795ZM30.276 30.6526C31.0102 29.2706 31.1536 27.8056 31.007 26.4863L23.056 27.3697C23.063 27.4332 23.0527 27.4072 23.0672 27.3141C23.0827 27.2146 23.1226 27.0659 23.211 26.8994L30.276 30.6526ZM30.9457 26.104C30.6943 24.9098 30.1907 23.829 29.525 22.8704L22.954 27.4336C23.0883 27.627 23.1127 27.7302 23.1173 27.752L30.9457 26.104ZM29.5677 22.9332C28.8001 21.7818 27.7756 20.8758 26.5528 20.2487L22.9022 27.3673C22.9153 27.3739 22.9212 27.3779 22.9218 27.3784C22.9224 27.3788 22.92 27.3772 22.916 27.3736C22.912 27.3701 22.9089 27.3667 22.907 27.3646C22.9052 27.3626 22.9068 27.3641 22.9113 27.3708L29.5677 22.9332ZM22.2589 23.1256C22.4972 22.2234 22.7047 21.3599 22.8799 20.5364L15.0551 18.8716C14.9103 19.5521 14.7338 20.2886 14.5241 21.0824L22.2589 23.1256ZM22.8799 20.5364C23.0126 19.9131 23.169 19.3291 23.347 18.7823L15.74 16.3057C15.47 17.1349 15.2424 17.9909 15.0551 18.8716L22.8799 20.5364ZM21.2304 21.1709C21.7577 20.9257 22.1805 20.7737 22.5071 20.6855L20.4199 12.9625C19.5625 13.1943 18.7053 13.5223 17.8566 13.9171L21.2304 21.1709ZM22.5071 20.6855C22.9045 20.5781 23.1109 20.5594 23.1663 20.5574L22.8807 12.5625C22.0401 12.5926 21.2065 12.7499 20.4199 12.9625L22.5071 20.6855ZM23.2987 20.5505C23.3488 20.5471 23.32 20.5531 23.2304 20.5436C23.1419 20.5341 22.9512 20.505 22.7017 20.408L25.6013 12.952C24.5584 12.5464 23.5294 12.5156 22.7483 12.5695L23.2987 20.5505ZM22.8866 20.4747C22.679 20.4055 22.2931 20.2457 21.885 19.8933C21.445 19.5132 21.0607 18.9763 20.8564 18.3123L28.5026 15.9597C27.9218 14.0721 26.4091 13.2162 25.4164 12.8853L22.8866 20.4747ZM20.7989 18.1061C20.6136 17.365 20.7276 16.7799 20.8027 16.5108C20.8786 16.239 20.9658 16.1028 20.9503 16.1288L27.8327 20.2072C28.1951 19.5956 29.0294 18.0432 28.5601 16.1659L20.7989 18.1061ZM20.9849 16.0716C21.0144 16.0236 21.0103 16.0412 20.9361 16.1227C20.8637 16.2022 20.7451 16.3201 20.5643 16.475L25.7707 22.549C26.5021 21.9221 27.2439 21.165 27.7981 20.2644L20.9849 16.0716ZM20.5717 16.4687C20.2685 16.7273 19.8107 17.0513 19.1503 17.4268L23.1047 24.3812C24.0763 23.8287 24.9785 23.2247 25.7633 22.5553L20.5717 16.4687ZM19.1206 17.4439C18.597 17.7476 17.9463 18.0403 17.1444 18.3034L19.6386 25.9046C20.8847 25.4957 22.058 24.9884 23.1344 24.3641L19.1206 17.4439ZM18.7158 29.8921C19.1715 29.7441 19.4982 29.6769 19.7128 29.6509L18.7502 21.7091C17.9088 21.8111 17.0675 22.0159 16.2432 22.2839L18.7158 29.8921ZM19.8307 29.6349C19.964 29.6147 20.0567 29.6076 20.1134 29.6056C20.1704 29.6037 20.1787 29.6073 20.1469 29.6035L21.1001 21.6605C20.248 21.5582 19.4083 21.6076 18.6323 21.7251L19.8307 29.6349ZM20.1469 29.6035C20.1898 29.6087 20.1698 29.6092 20.1029 29.5908C20.0376 29.5729 19.8917 29.5271 19.7011 29.4254L23.4659 22.3666C22.6317 21.9217 21.7774 21.7418 21.1001 21.6605L20.1469 29.6035ZM19.7012 29.4254C19.5672 29.3539 18.9243 28.9938 18.4858 28.1169L25.6412 24.5391C25.0428 23.3422 24.0798 22.6941 23.4658 22.3666L19.7012 29.4254ZM18.1698 27.2442C17.8643 25.9456 18.4396 25.0621 18.5446 24.915L25.0544 29.565C25.6394 28.7459 26.3907 27.2544 25.9572 25.4118L18.1698 27.2442ZM18.5226 24.9462C18.5642 24.8866 18.5982 24.8462 18.6179 24.824C18.6376 24.8018 18.6467 24.7939 18.6406 24.7996C18.6346 24.8051 18.6169 24.8212 18.5844 24.8471C18.552 24.8729 18.5078 24.9064 18.4497 24.9471L23.0373 31.5009C23.7278 31.0176 24.486 30.3773 25.0764 29.5338L18.5226 24.9462ZM18.5247 24.8958C18.2828 25.057 17.9123 25.2638 17.3748 25.5013L20.6082 32.8187C21.4467 32.4482 22.2442 32.031 22.9623 31.5522L18.5247 24.8958ZM17.4469 25.4702C16.9705 25.6697 16.4057 25.8573 15.7414 26.0234L17.6816 33.7846C18.6813 33.5347 19.6365 33.2263 20.5361 32.8498L17.4469 25.4702ZM20.6516 30.5935C20.7561 29.9965 20.8675 29.4174 20.9857 28.856L13.1573 27.208C13.0195 27.8626 12.8909 28.5315 12.7714 29.2145L20.6516 30.5935ZM20.9691 28.9314C21.1254 28.2541 21.2719 27.5556 21.4089 26.8364L13.5501 25.3396C13.4311 25.9644 13.3056 26.5619 13.1739 27.1326L20.9691 28.9314Z" transform="translate(5.8999 0.5)" fill="black"/>
<path d="M13.032 16.392C13.512 16.328 13.808 16.232 13.92 16.104C14.032 15.96 14.056 15.68 13.992 15.264C13.928 14.576 13.68 13.872 13.248 13.152C13.104 12.928 12.968 12.752 12.84 12.624C12.712 12.48 12.576 12.376 12.432 12.312C12.304 12.232 12.152 12.184 11.976 12.168C11.816 12.136 11.616 12.12 11.376 12.12C10.416 12.152 9.44 12.208 8.448 12.288C7.472 12.368 6.512 12.472 5.568 12.6C4.624 12.712 3.72 12.848 2.856 13.008C2.008 13.152 1.24 13.32 0.552 13.512C0.6 14.296 0.592 15.208 0.528 16.248C0.464 17.288 0.36 18.384 0.216 19.536C0.088 20.672 -0.064 21.824 -0.24 22.992C-0.416 24.16 -0.584 25.264 -0.744 26.304C-0.904 27.328 -1.04 28.256 -1.152 29.088C-1.28 29.904 -1.352 30.536 -1.368 30.984C-1.368 31.4 -1.328 31.72 -1.248 31.944C-1.168 32.168 -0.928 32.376 -0.528 32.568C-0.224 32.696 0.128 32.832 0.528 32.976C0.944 33.12 1.336 33.216 1.704 33.264C2.072 33.328 2.384 33.328 2.64 33.264C2.896 33.216 3.032 33.048 3.048 32.76C3.24 31.896 3.448 30.912 3.672 29.808C3.912 28.688 4.184 27.512 4.488 26.28C5.4 26.088 6.32 25.904 7.248 25.728C8.176 25.552 9.096 25.392 10.008 25.248C10.44 25.2 10.712 25.112 10.824 24.984C10.952 24.84 10.952 24.584 10.824 24.216C10.744 23.896 10.648 23.584 10.536 23.28C10.44 22.96 10.296 22.64 10.104 22.32C9.752 21.776 9.184 21.528 8.4 21.576C7.904 21.592 7.416 21.624 6.936 21.672C6.472 21.704 6.008 21.744 5.544 21.792C5.816 20.928 6.032 20.104 6.192 19.32C6.368 18.536 6.568 17.816 6.792 17.16C7.928 17 9.008 16.864 10.032 16.752C11.072 16.64 12.072 16.52 13.032 16.392ZM24.7275 23.808C25.2715 23.536 25.7435 23.256 26.1435 22.968C26.5435 22.664 26.9355 22.368 27.3195 22.08C27.6715 21.776 27.9995 21.456 28.3035 21.12C28.6075 20.768 28.8635 20.392 29.0715 19.992C29.2795 19.592 29.4235 19.176 29.5035 18.744C29.5995 18.312 29.6075 17.864 29.5275 17.4C29.3515 16.552 29.0715 15.808 28.6875 15.168C28.3195 14.528 27.8555 13.928 27.2955 13.368C26.8635 12.952 26.3115 12.64 25.6395 12.432C24.9675 12.208 24.2235 12.072 23.4075 12.024C22.6075 11.976 21.7595 12 20.8635 12.096C19.9675 12.192 19.0795 12.344 18.1995 12.552C17.3355 12.76 16.5035 13.008 15.7035 13.296C14.9035 13.584 14.1995 13.896 13.5915 14.232C13.5595 15.464 13.4795 16.768 13.3515 18.144C13.2395 19.504 13.1115 20.864 12.9675 22.224C12.8075 23.568 12.6635 24.872 12.5355 26.136C12.4075 27.384 12.3195 28.504 12.2715 29.496C12.2395 29.8 12.2395 30.048 12.2715 30.24C12.3035 30.432 12.3595 30.608 12.4395 30.768C12.5195 30.912 12.6315 31.056 12.7755 31.2C12.9035 31.328 13.0555 31.488 13.2315 31.68C13.7115 32.048 14.1275 32.352 14.4795 32.592C14.8475 32.816 15.2715 33.032 15.7515 33.24C16.0075 33.384 16.2315 33.488 16.4235 33.552C16.6155 33.616 16.8075 33.656 16.9995 33.672C17.2075 33.688 17.4155 33.68 17.6235 33.648C17.8475 33.616 18.1115 33.56 18.4155 33.48C18.9915 33.336 19.5995 33.16 20.2395 32.952C20.8795 32.728 21.5115 32.48 22.1355 32.208C22.7755 31.936 23.3755 31.632 23.9355 31.296C24.5115 30.96 25.0075 30.608 25.4235 30.24C26.0315 29.76 26.4715 29.272 26.7435 28.776C27.0155 28.264 27.1115 27.648 27.0315 26.928C26.9035 26.32 26.6395 25.728 26.2395 25.152C25.8555 24.576 25.3515 24.128 24.7275 23.808ZM18.3915 22.104C18.6155 21.256 18.8075 20.456 18.9675 19.704C19.1275 18.952 19.3195 18.232 19.5435 17.544C20.2315 17.224 20.8715 16.984 21.4635 16.824C22.0555 16.664 22.5755 16.576 23.0235 16.56C23.4875 16.528 23.8635 16.568 24.1515 16.68C24.4395 16.776 24.6155 16.928 24.6795 17.136C24.7435 17.392 24.6475 17.736 24.3915 18.168C24.1355 18.584 23.7275 19.032 23.1675 19.512C22.6235 19.976 21.9435 20.44 21.1275 20.904C20.3275 21.368 19.4155 21.768 18.3915 22.104ZM17.4795 26.088C18.1195 25.88 18.7035 25.744 19.2315 25.68C19.7595 25.6 20.2235 25.584 20.6235 25.632C21.0235 25.68 21.3435 25.768 21.5835 25.896C21.8235 26.024 21.9835 26.168 22.0635 26.328C22.1275 26.6 22.0395 26.904 21.7995 27.24C21.5755 27.56 21.2235 27.888 20.7435 28.224C20.2635 28.544 19.6795 28.856 18.9915 29.16C18.3035 29.448 17.5435 29.696 16.7115 29.904C16.8235 29.264 16.9435 28.64 17.0715 28.032C17.2155 27.408 17.3515 26.76 17.4795 26.088Z" transform="translate(5.8999 0.5)" fill="#4267B2"/>
</svg>
