<svg width="36" height="36" viewBox="0 0 36 36" fill="none" xmlns="http://www.w3.org/2000/svg">
<path d="M17.9015 0.5C8.24689 0.5 0.401489 8.34545 0.401489 18C0.401489 27.6546 8.24689 35.5 17.9015 35.5C27.5562 35.5 35.4015 27.6546 35.4015 18C35.4015 8.34545 27.5562 0.5 17.9015 0.5ZM16.1481 10.1182C19.5205 10.1182 22.2697 12.8691 22.2697 16.2414C22.2697 17.6165 21.8096 18.8853 21.0392 19.9106C21.0757 19.9381 21.11 19.9684 21.1418 20.0013L25.515 24.3729C25.599 24.4533 25.6662 24.5497 25.7125 24.6564C25.7589 24.7631 25.7835 24.878 25.7849 24.9943C25.7864 25.1106 25.7646 25.226 25.7209 25.3338C25.6772 25.4416 25.6124 25.5397 25.5304 25.6221C25.4484 25.7046 25.3507 25.7699 25.2431 25.8142C25.1356 25.8585 25.0203 25.8809 24.9039 25.8801C24.7876 25.8793 24.6726 25.8553 24.5657 25.8096C24.4587 25.7638 24.362 25.6972 24.2811 25.6136L19.901 21.2352C19.8699 21.2038 19.8413 21.1701 19.8153 21.1344C18.7912 21.9064 17.5234 22.3717 16.1479 22.3717C12.7755 22.3717 10.0178 19.6138 10.0178 16.2414C10.0178 12.8691 12.7755 10.1183 16.1479 10.1183L16.1481 10.1182ZM16.1481 11.8682C13.8732 11.8682 12.0155 13.5788 11.7919 15.792C11.7754 15.9395 11.7687 16.0896 11.7687 16.2414C11.7687 18.6681 13.7206 20.6217 16.1472 20.6217C18.5738 20.6217 20.5205 18.6681 20.5205 16.2414C20.5205 13.8148 18.5738 11.8682 16.1472 11.8682H16.1481Z" fill="#FF026C"/>
</svg>
