<svg width="32" height="25" viewBox="0 0 32 25" fill="none" xmlns="http://www.w3.org/2000/svg">
<path d="M30.7773 2.95789C29.6445 3.45984 28.4291 3.80025 27.152 3.95222C28.456 3.17137 29.4541 1.93284 29.9272 0.46156C28.704 1.18468 27.3539 1.70975 25.9153 1.99439C24.7633 0.76546 23.1247 0 21.3073 0C17.8205 0 14.9933 2.82714 14.9933 6.31202C14.9933 6.80627 15.0491 7.289 15.1568 7.75061C9.9103 7.48709 5.25805 4.97346 2.14436 1.1539C1.60007 2.08476 1.29044 3.16941 1.29044 4.32723C1.29044 6.51781 2.40591 8.45064 4.09836 9.58146C3.06365 9.54686 2.0905 9.26222 1.23854 8.78909V8.86795C1.23854 11.9259 3.41563 14.478 6.30236 15.0588C5.77347 15.2011 5.21575 15.28 4.63878 15.28C4.23108 15.28 3.83681 15.2396 3.45023 15.1627C4.25411 17.6725 6.58509 19.4976 9.34686 19.5476C7.18706 21.2401 4.46377 22.2459 1.50588 22.2459C0.99624 22.2459 0.494248 22.2152 0 22.1594C2.79445 23.9538 6.11202 25 9.67766 25C21.292 25 27.6406 15.38 27.6406 7.0371L27.6194 6.21974C28.8598 5.33499 29.933 4.22339 30.7773 2.95789Z" transform="translate(0.984009)" fill="white"/>
</svg>
